<?xml version="1.0" encoding="UTF-8" standalone="no"?>
<!DOCTYPE svg PUBLIC "-//W3C//DTD SVG 20010904//EN"
              "http://www.w3.org/TR/2001/REC-SVG-20010904/DTD/svg10.dtd">

<svg xmlns="http://www.w3.org/2000/svg"
     width="3.9375in" height="3.9375in"
     viewBox="0 0 378 378">
  <path id="Selection #11"
        fill="none" stroke="black" stroke-width="1"
        d="M 193.00,37.00
           C 193.00,37.00 185.00,33.00 185.00,33.00
             182.16,44.34 194.01,41.32 200.00,38.00
             203.40,42.53 206.85,40.63 212.00,41.10
             217.84,41.64 226.16,44.50 232.00,44.00
             231.46,40.54 232.10,33.28 230.82,31.31
             229.08,28.63 219.16,26.84 217.07,29.60
             215.97,31.06 216.07,36.06 216.00,38.00
             216.00,38.00 214.00,38.00 214.00,38.00
             214.00,35.08 214.42,30.74 212.40,28.45
             210.05,25.73 204.39,25.38 202.20,28.45
             201.21,29.86 201.20,32.32 201.00,34.00
             201.00,34.00 190.00,22.00 190.00,22.00
             190.00,22.00 198.00,25.00 198.00,25.00
             197.94,23.03 198.17,20.54 196.43,19.17
             193.73,17.05 183.72,17.39 183.82,25.00
             183.91,31.41 189.58,30.54 193.00,37.00 Z
           M 187.00,23.00
           C 191.15,27.97 196.43,29.15 197.00,36.00
             190.01,28.27 185.38,28.62 187.00,23.00 Z
           M 211.00,30.00
           C 211.00,30.00 211.00,39.00 211.00,39.00
             209.21,35.41 209.04,33.56 211.00,30.00 Z
           M 228.00,32.00
           C 230.37,35.54 229.37,37.20 228.00,41.00
             226.81,37.93 226.82,35.08 228.00,32.00 Z
           M 246.00,46.00
           C 248.14,50.91 249.59,52.03 255.00,51.00
             253.95,45.79 253.39,45.10 258.00,42.00
             258.00,42.00 257.04,52.86 257.04,52.86
             257.04,52.86 267.91,59.55 267.91,59.55
             267.91,59.55 289.00,74.00 289.00,74.00
             291.48,68.00 292.04,67.92 298.00,69.00
             297.66,72.24 296.84,77.24 293.73,79.03
             291.61,80.25 288.39,79.00 287.17,81.34
             285.53,84.46 289.67,85.85 292.00,85.76
             296.54,85.58 302.82,81.30 312.00,80.00
             310.12,74.64 298.16,62.37 293.00,59.98
             291.11,59.11 289.97,59.16 288.00,59.00
             286.83,62.87 286.60,63.15 283.00,65.00
             285.47,61.15 289.19,55.71 283.77,52.31
             282.22,51.34 279.92,50.92 278.13,51.33
             275.69,51.88 272.90,55.24 271.00,57.00
             271.50,54.33 274.03,48.55 272.87,46.51
             271.85,44.70 261.67,40.91 259.31,39.08
             256.79,37.13 257.02,34.57 254.73,33.65
             252.34,32.69 251.21,34.39 250.00,36.00
             247.22,34.33 244.39,32.21 241.00,32.21
             232.75,32.23 231.11,41.86 235.31,45.40
             238.22,47.85 242.69,46.81 246.00,46.00 Z
           M 220.00,34.00
           C 220.00,34.00 218.00,40.00 218.00,40.00
             218.00,40.00 220.00,34.00 220.00,34.00 Z
           M 226.00,34.00
           C 226.00,34.00 224.00,40.00 224.00,40.00
             224.00,40.00 223.00,34.00 223.00,34.00
             223.00,34.00 226.00,34.00 226.00,34.00 Z
           M 204.00,36.00
           C 204.00,36.00 204.00,37.00 204.00,37.00
             204.00,37.00 203.00,36.00 203.00,36.00
             203.00,36.00 204.00,36.00 204.00,36.00 Z
           M 254.00,36.00
           C 254.00,36.00 251.00,45.00 251.00,45.00
             251.00,45.00 252.00,36.00 252.00,36.00
             252.00,36.00 254.00,36.00 254.00,36.00 Z
           M 237.00,37.00
           C 237.00,37.00 237.00,43.00 237.00,43.00
             235.06,40.24 235.06,39.76 237.00,37.00 Z
           M 242.00,37.00
           C 242.00,37.00 248.00,39.00 248.00,39.00
             248.00,39.00 247.00,46.00 247.00,46.00
             242.02,42.26 237.78,41.74 242.00,37.00 Z
           M 263.00,43.00
           C 263.00,43.00 260.00,52.00 260.00,52.00
             260.00,52.00 261.00,43.00 261.00,43.00
             261.00,43.00 263.00,43.00 263.00,43.00 Z
           M 266.00,45.00
           C 266.46,48.90 266.40,49.86 263.00,52.00
             263.00,52.00 266.00,45.00 266.00,45.00 Z
           M 269.00,51.00
           C 269.00,51.00 266.00,55.00 266.00,55.00
             266.00,55.00 269.00,51.00 269.00,51.00 Z
           M 284.00,57.00
           C 282.82,60.47 282.13,61.98 279.00,64.00
             279.00,64.00 284.00,57.00 284.00,57.00 Z
           M 292.00,62.00
           C 292.00,62.00 289.00,66.00 289.00,66.00
             289.00,66.00 292.00,62.00 292.00,62.00 Z
           M 289.00,66.00
           C 289.00,66.00 289.00,67.00 289.00,67.00
             289.00,67.00 288.00,66.00 288.00,66.00
             288.00,66.00 289.00,66.00 289.00,66.00 Z
           M 302.00,71.00
           C 301.36,74.58 300.92,77.63 298.00,80.00
             298.00,80.00 302.00,71.00 302.00,71.00 Z
           M 325.00,92.00
           C 325.00,92.00 330.00,94.00 330.00,94.00
             325.22,97.91 321.16,100.83 315.00,102.00
             315.00,102.00 317.00,110.00 317.00,110.00
             317.00,110.00 334.00,101.00 334.00,101.00
             334.00,101.00 334.00,108.00 334.00,108.00
             343.97,104.30 334.50,97.15 331.00,88.00
             327.09,88.33 326.34,88.17 325.00,92.00 Z
           M 331.00,141.00
           C 339.09,136.42 336.51,139.81 344.00,141.00
             343.47,135.90 342.73,131.64 338.00,129.00
             338.00,129.00 331.00,132.00 331.00,132.00
             333.77,127.32 336.40,128.20 337.93,125.59
             339.04,123.71 338.40,120.77 335.94,120.54
             333.89,120.35 333.38,122.23 328.00,122.00
             328.00,122.00 336.00,118.00 336.00,118.00
             333.58,107.01 324.05,116.44 323.53,119.10
             322.84,122.65 326.24,127.82 327.68,131.00
             327.68,131.00 331.00,141.00 331.00,141.00 Z
           M 335.00,157.00
           C 339.28,154.84 351.16,151.40 343.69,144.54
             342.50,143.45 341.77,143.40 341.00,143.00
             341.00,143.00 340.00,146.00 340.00,146.00
             329.51,139.43 331.98,151.50 335.00,157.00 Z
           M 342.00,177.00
           C 338.93,182.57 337.67,182.73 332.00,185.00
             335.20,192.30 335.97,190.40 336.00,199.00
             336.00,199.00 350.00,198.00 350.00,198.00
             350.00,198.00 354.00,184.00 354.00,184.00
             348.56,182.84 347.25,181.43 344.00,177.00
             344.00,177.00 342.00,177.00 342.00,177.00 Z
           M 52.00,178.00
           C 48.35,183.42 47.87,182.77 42.00,185.00
             45.20,192.30 45.97,190.40 46.00,199.00
             46.00,199.00 52.58,197.00 52.58,197.00
             52.58,197.00 58.42,197.00 58.42,197.00
             58.42,197.00 64.00,184.00 64.00,184.00
             64.00,184.00 52.00,178.00 52.00,178.00 Z
           M 333.00,204.00
           C 331.03,208.32 331.76,208.02 330.57,211.42
             328.38,217.69 325.16,219.91 327.00,227.00
             327.00,227.00 323.00,232.00 323.00,232.00
             323.00,232.00 329.00,236.00 329.00,236.00
             321.07,234.17 319.55,237.99 324.00,241.00
             324.00,241.00 318.21,242.58 318.21,242.58
             312.91,245.04 311.07,251.73 311.00,257.00
             304.63,257.53 304.73,259.30 303.00,265.00
             298.91,265.25 298.67,266.10 298.00,270.00
             293.82,271.27 293.27,271.82 292.00,276.00
             284.49,277.24 279.32,287.16 274.17,288.34
             271.08,289.05 269.58,285.86 271.52,284.18
             273.12,283.10 275.23,283.69 277.00,284.18
             276.94,271.49 263.65,280.40 261.00,288.00
             266.36,290.67 267.64,294.03 270.58,299.00
             271.76,301.00 273.47,304.60 275.94,305.15
             277.98,305.61 283.19,302.20 284.78,300.90
             287.20,298.90 287.35,297.89 288.00,295.00
             296.03,296.07 291.03,288.53 290.00,283.00
             290.00,283.00 298.00,291.00 298.00,291.00
             300.82,284.05 297.62,285.73 297.00,277.00
             300.39,281.42 307.17,288.36 308.00,278.00
             309.71,279.32 314.68,284.07 316.26,284.37
             319.07,284.90 321.85,281.83 314.00,276.00
             317.72,270.97 317.93,270.15 318.00,264.00
             328.46,263.63 328.09,256.52 324.00,249.00
             329.53,249.71 334.88,250.79 331.00,243.00
             338.44,242.38 336.64,239.34 334.00,234.00
             342.41,232.59 343.90,228.93 342.00,221.00
             348.94,216.92 341.23,214.27 338.31,210.87
             336.54,208.81 335.91,206.49 335.00,204.00
             335.00,204.00 333.00,204.00 333.00,204.00 Z
           M 335.00,227.00
           C 335.00,227.00 335.00,219.00 335.00,219.00
             341.64,220.17 340.36,225.17 335.00,227.00 Z
           M 321.00,259.00
           C 317.06,257.18 316.07,256.91 314.00,253.00
             318.90,253.17 321.73,253.25 321.00,259.00 Z
           M 312.00,272.00
           C 312.00,272.00 310.00,272.00 310.00,272.00
             310.00,272.00 308.00,264.00 308.00,264.00
             312.89,265.56 313.20,267.22 312.00,272.00 Z
           M 302.00,271.00
           C 302.00,271.00 307.00,278.00 307.00,278.00
             303.35,276.78 301.25,275.09 302.00,271.00 Z
           M 283.00,287.00
           C 283.00,287.00 286.00,292.00 286.00,292.00
             282.30,294.39 278.68,303.90 275.00,294.00
             275.00,294.00 281.00,287.00 281.00,287.00
             281.00,287.00 283.00,287.00 283.00,287.00 Z
           M 174.00,40.00
           C 174.00,40.00 176.00,29.00 176.00,29.00
             172.15,29.00 165.53,28.40 162.84,31.65
             161.99,32.67 161.71,33.74 161.66,35.04
             161.66,35.04 163.60,48.85 163.60,48.85
             164.15,50.13 164.85,50.86 166.15,51.39
             173.41,54.33 184.36,43.48 174.00,40.00 Z
           M 169.00,33.00
           C 169.00,33.00 169.00,37.00 169.00,37.00
             169.00,37.00 167.00,33.00 167.00,33.00
             167.00,33.00 169.00,33.00 169.00,33.00 Z
           M 132.00,33.00
           C 131.35,36.86 131.15,37.64 135.00,39.00
             132.22,45.10 135.28,44.94 137.00,52.00
             130.84,47.19 129.73,40.98 121.02,46.44
             119.34,47.49 117.27,48.85 117.18,51.05
             117.05,54.07 119.90,54.43 120.00,61.00
             124.13,61.60 124.45,61.08 128.00,59.00
             128.00,59.00 124.00,50.00 124.00,50.00
             124.00,50.00 129.00,57.00 129.00,57.00
             129.00,57.00 146.00,50.19 146.00,50.19
             146.00,50.19 151.59,46.70 151.59,46.70
             151.59,46.70 150.00,38.00 150.00,38.00
             156.19,43.98 152.90,49.32 162.00,44.00
             157.39,37.30 158.02,31.08 148.00,34.51
             146.09,35.17 143.37,35.95 142.87,38.22
             142.87,38.22 145.00,48.00 145.00,48.00
             139.03,44.35 138.97,35.40 132.00,33.00 Z
           M 165.00,35.00
           C 165.00,35.00 165.00,36.00 165.00,36.00
             165.00,36.00 164.00,35.00 164.00,35.00
             164.00,35.00 165.00,35.00 165.00,35.00 Z
           M 148.00,41.00
           C 148.00,41.00 148.00,42.00 148.00,42.00
             148.00,42.00 147.00,41.00 147.00,41.00
             147.00,41.00 148.00,41.00 148.00,41.00 Z
           M 157.00,41.00
           C 157.00,41.00 157.00,42.00 157.00,42.00
             157.00,42.00 156.00,41.00 156.00,41.00
             156.00,41.00 157.00,41.00 157.00,41.00 Z
           M 173.00,45.00
           C 173.00,45.00 173.00,47.00 173.00,47.00
             173.00,47.00 169.00,47.00 169.00,47.00
             169.00,47.00 169.00,45.00 169.00,45.00
             169.00,45.00 173.00,45.00 173.00,45.00 Z
           M 110.00,68.00
           C 110.00,68.00 104.72,63.43 104.72,63.43
             99.04,59.15 94.43,65.24 94.50,68.83
             94.54,71.36 96.89,72.94 96.00,75.96
             95.33,78.24 93.86,78.94 92.00,80.00
             92.72,78.90 94.12,77.03 94.34,75.76
             94.82,73.04 92.46,71.58 90.00,72.12
             87.27,72.71 85.04,75.34 84.48,78.00
             83.71,81.73 88.13,88.85 83.69,90.90
             79.58,92.78 72.88,84.98 71.00,82.00
             66.83,84.18 66.12,85.49 65.00,90.00
             70.94,91.58 77.30,97.22 81.00,102.00
             86.01,98.06 89.50,93.49 90.00,87.00
             96.57,85.60 97.77,83.47 98.00,77.11
             99.47,77.24 100.39,77.62 101.96,77.11
             105.98,76.22 116.15,66.72 118.00,63.00
             113.00,58.94 114.36,58.50 116.00,53.00
             112.47,52.52 105.85,54.35 106.10,59.05
             106.23,61.38 108.54,62.97 110.00,68.00 Z
           M 124.00,56.00
           C 124.00,56.00 124.00,57.00 124.00,57.00
             124.00,57.00 123.00,56.00 123.00,56.00
             123.00,56.00 124.00,56.00 124.00,56.00 Z
           M 110.00,58.00
           C 110.00,58.00 110.00,59.00 110.00,59.00
             110.00,59.00 109.00,58.00 109.00,58.00
             109.00,58.00 110.00,58.00 110.00,58.00 Z
           M 103.00,65.00
           C 103.00,65.00 103.00,66.00 103.00,66.00
             103.00,66.00 102.00,65.00 102.00,65.00
             102.00,65.00 103.00,65.00 103.00,65.00 Z
           M 69.00,203.00
           C 64.21,207.78 62.05,207.00 56.00,208.58
             54.16,209.06 50.16,210.05 49.03,211.58
             47.23,214.02 49.16,219.28 49.93,221.96
             49.93,221.96 54.14,232.72 54.14,232.72
             54.14,232.72 56.70,237.09 56.70,237.09
             59.32,242.95 60.30,249.96 67.00,252.00
             67.09,259.51 67.46,256.93 70.64,262.20
             71.77,264.06 71.78,264.74 73.41,266.55
             73.41,266.55 77.13,270.24 77.13,270.24
             79.99,273.85 84.16,279.59 88.00,282.00
             91.72,273.69 95.10,273.67 96.16,269.96
             97.40,265.57 93.09,263.25 91.28,261.41
             86.61,256.65 89.36,253.88 79.00,252.00
             79.00,252.00 81.00,246.00 81.00,246.00
             81.00,246.00 67.00,248.00 67.00,248.00
             71.13,245.03 78.00,242.80 74.00,237.00
             74.00,237.00 85.00,232.00 85.00,232.00
             85.00,232.00 84.00,226.00 84.00,226.00
             84.00,226.00 72.00,230.00 72.00,230.00
             67.04,219.77 61.79,225.27 56.16,221.15
             52.35,218.35 54.75,214.91 57.76,216.16
             59.23,216.78 60.42,219.08 64.00,221.00
             64.00,221.00 64.00,213.00 64.00,213.00
             65.79,212.91 68.60,212.35 69.53,214.40
             70.23,215.96 68.71,219.44 71.29,220.18
             73.84,220.91 75.42,218.15 75.40,215.96
             75.38,212.76 72.47,205.94 71.00,203.00
             71.00,203.00 69.00,203.00 69.00,203.00 Z
           M 68.00,230.00
           C 64.54,232.51 62.59,232.08 59.00,230.00
             63.31,228.11 63.69,228.11 68.00,230.00 Z
           M 70.00,237.00
           C 67.76,240.85 65.95,241.28 62.00,243.00
             64.24,238.80 65.68,238.56 70.00,237.00 Z
           M 73.00,255.00
           C 73.00,255.00 73.00,256.00 73.00,256.00
             73.00,256.00 72.00,255.00 72.00,255.00
             72.00,255.00 73.00,255.00 73.00,255.00 Z
           M 84.00,258.00
           C 84.00,258.00 86.00,266.00 86.00,266.00
             83.75,265.86 80.10,265.96 78.37,264.38
             73.88,260.28 80.98,258.24 84.00,258.00 Z
           M 97.00,288.00
           C 98.55,294.09 100.90,295.58 107.00,294.00
             107.00,294.00 107.00,292.00 107.00,292.00
             107.00,292.00 102.00,287.00 102.00,287.00
             105.40,287.52 111.49,290.07 113.01,285.77
             113.79,284.35 113.60,282.69 113.01,281.39
             111.12,278.60 106.35,277.88 105.73,275.19
             105.45,273.96 108.28,269.95 109.00,268.00
             102.03,266.51 96.49,271.58 92.71,277.00
             88.58,282.92 89.55,287.12 97.00,288.00 Z
           M 103.00,279.00
           C 103.00,279.00 95.00,284.00 95.00,284.00
             97.07,279.77 98.14,278.40 103.00,279.00 Z
           M 134.00,286.00
           C 134.51,290.73 134.79,291.52 132.73,296.00
             131.50,298.70 127.61,305.34 127.70,307.95
             127.84,311.77 135.53,315.43 138.91,315.25
             140.82,315.15 142.42,313.95 144.00,313.00
             144.00,313.00 143.00,317.00 143.00,317.00
             143.00,317.00 147.00,318.00 147.00,318.00
             150.22,313.25 150.86,311.83 156.00,309.00
             153.03,315.11 150.04,324.36 161.00,320.00
             163.24,323.33 164.30,322.93 168.00,322.00
             168.00,322.00 166.56,316.91 166.56,316.91
             166.56,316.91 172.00,294.00 172.00,294.00
             172.00,294.00 167.00,294.00 167.00,294.00
             167.00,294.00 161.00,319.00 161.00,319.00
             161.00,319.00 158.00,318.00 158.00,318.00
             160.42,311.00 164.30,302.16 152.00,305.00
             149.90,301.29 149.11,301.15 145.00,302.00
             145.00,302.00 145.00,311.00 145.00,311.00
             145.00,311.00 143.00,310.00 143.00,310.00
             143.00,310.00 143.00,309.00 143.00,309.00
             136.91,310.77 133.39,310.25 135.00,303.00
             139.37,304.08 140.44,305.24 144.00,302.00
             144.00,302.00 138.00,299.00 138.00,299.00
             138.00,299.00 140.00,293.00 140.00,293.00
             140.00,293.00 145.00,298.00 145.00,298.00
             148.53,296.87 151.44,294.31 147.57,291.07
             145.17,289.07 137.21,286.73 134.00,286.00 Z
           M 177.00,322.00
           C 177.00,322.00 174.00,322.00 174.00,322.00
             174.12,318.21 174.10,318.64 175.00,315.00
             175.35,313.56 176.28,306.91 172.53,309.17
             170.69,310.28 167.12,321.35 170.60,323.98
             172.40,325.32 175.05,324.45 177.00,323.98
             176.05,325.29 174.98,326.52 174.32,328.00
             169.66,338.29 190.37,338.70 190.63,329.98
             190.68,328.23 189.99,326.85 188.69,325.72
             187.46,324.66 186.42,324.50 185.00,324.00
             185.00,324.00 185.00,322.00 185.00,322.00
             189.29,320.39 189.88,319.39 191.00,315.00
             191.76,317.68 191.86,324.79 193.54,325.83
             196.61,327.73 198.38,320.70 199.27,319.00
             200.12,317.39 200.93,316.42 202.02,315.00
             202.02,315.00 202.02,320.00 202.02,320.00
             202.54,328.03 207.40,327.07 208.29,324.77
             208.89,323.21 207.58,320.60 207.26,318.91
             206.26,313.67 206.86,305.45 197.00,313.00
             197.00,313.00 197.83,304.00 197.83,304.00
             197.95,302.45 197.81,296.10 194.54,298.17
             191.08,300.36 195.89,308.63 187.00,309.20
             176.24,309.90 177.00,311.96 177.00,322.00 Z
           M 173.00,301.00
           C 174.12,307.35 178.33,306.28 177.00,300.00
             177.00,300.00 173.00,301.00 173.00,301.00 Z
           M 211.00,301.00
           C 208.66,310.24 208.11,309.93 210.19,319.00
             210.55,320.60 210.93,323.13 211.95,324.55
             214.67,327.82 218.20,324.96 222.00,324.55
             228.01,324.26 230.41,325.09 232.00,318.00
             232.00,318.00 224.00,319.00 224.00,319.00
             224.00,319.00 224.00,317.00 224.00,317.00
             228.43,315.18 229.57,314.71 231.00,310.00
             237.67,316.35 232.45,319.70 240.00,321.00
             240.00,314.78 239.25,313.31 243.00,308.00
             243.79,312.43 248.44,325.09 252.00,314.00
             250.69,312.81 250.12,312.54 249.16,310.89
             247.53,308.09 247.39,302.87 243.01,302.86
             240.67,302.86 240.02,304.33 239.00,306.00
             232.98,305.11 224.19,306.39 220.00,311.00
             214.92,307.37 214.22,307.37 214.00,301.00
             214.00,301.00 211.00,301.00 211.00,301.00 Z
           M 219.00,311.00
           C 219.00,311.00 219.00,312.00 219.00,312.00
             219.00,312.00 218.00,311.00 218.00,311.00
             218.00,311.00 219.00,311.00 219.00,311.00 Z
           M 226.00,311.00
           C 226.00,311.00 226.00,312.00 226.00,312.00
             226.00,312.00 225.00,311.00 225.00,311.00
             225.00,311.00 226.00,311.00 226.00,311.00 Z
           M 218.00,312.00
           C 218.00,312.00 219.00,322.00 219.00,322.00
             213.64,320.07 213.49,315.16 218.00,312.00 Z
           M 183.00,319.00
           C 183.00,319.00 182.00,313.00 182.00,313.00
             186.25,314.48 186.61,316.26 183.00,319.00 Z
           M 186.00,330.00
           C 186.00,330.00 186.00,332.00 186.00,332.00
             181.92,333.02 181.73,332.93 178.00,331.00
             181.27,327.89 181.97,328.27 186.00,330.00 Z
           M 158.00,122.00
           C 158.10,129.39 158.61,129.90 166.00,130.00
             166.00,130.00 165.00,125.00 165.00,125.00
             169.13,126.87 169.58,126.96 174.00,126.00
             171.41,130.28 170.48,130.19 166.00,132.00
             167.40,137.74 166.93,140.31 167.00,146.00
             167.03,147.96 166.91,151.69 168.73,152.95
             171.54,154.89 173.45,151.24 173.87,148.98
             175.09,142.41 175.00,135.66 175.00,129.00
             185.02,131.19 183.11,124.37 181.40,123.02
             179.81,121.76 175.99,122.01 174.00,122.00
             173.83,120.98 173.88,120.18 173.41,119.15
             170.49,112.65 166.06,120.16 164.70,120.98
             162.80,122.14 160.16,121.97 158.00,122.00 Z
           M 199.00,245.00
           C 209.95,239.21 227.53,227.48 237.00,219.57
             241.51,215.79 248.51,209.42 250.77,204.00
             254.05,196.15 248.05,185.12 246.00,177.00
             245.42,174.70 244.97,169.37 243.26,167.99
             241.71,166.74 237.95,167.00 236.00,167.00
             236.00,167.00 207.00,167.00 207.00,167.00
             198.36,167.02 198.02,167.36 198.00,176.00
             198.00,176.00 198.00,221.00 198.00,221.00
             198.00,227.77 197.25,238.84 199.00,245.00 Z
           M 234.00,190.00
           C 236.66,192.47 248.03,200.07 243.26,204.00
             241.05,205.82 236.20,203.54 232.47,206.73
             229.20,209.53 229.05,215.37 225.82,216.83
             221.08,218.97 220.55,209.75 217.35,206.31
             213.69,202.38 209.00,205.28 206.59,203.66
             203.54,201.59 208.25,195.00 215.00,195.00
             215.00,195.00 215.00,202.00 215.00,202.00
             215.00,202.00 219.00,201.00 219.00,201.00
             215.76,194.98 213.12,192.02 211.60,185.00
             211.07,182.58 210.77,178.94 214.06,178.44
             217.46,177.93 222.29,183.71 225.66,183.52
             228.61,183.36 233.54,177.96 236.16,180.05
             238.62,182.01 235.40,188.18 234.00,190.00 Z
           M 227.00,186.00
           C 228.89,189.35 229.24,189.37 233.00,190.00
             233.00,190.00 231.00,185.00 231.00,185.00
             231.00,185.00 227.00,186.00 227.00,186.00 Z
           M 218.00,187.00
           C 219.06,189.94 218.88,189.97 222.00,190.00
             222.00,190.00 218.00,187.00 218.00,187.00 Z
           M 223.00,192.00
           C 223.00,192.00 221.00,200.00 221.00,200.00
             226.18,198.34 226.79,195.91 223.00,192.00 Z
           M 192.00,93.00
           C 192.00,93.00 200.00,94.00 200.00,94.00
             195.34,97.21 196.01,98.59 196.00,104.00
             196.00,104.00 196.00,146.00 196.00,146.00
             196.00,151.44 194.72,159.54 198.00,164.00
             198.00,164.00 195.00,167.00 195.00,167.00
             192.67,163.52 190.94,164.03 187.00,164.00
             187.00,164.00 161.00,164.00 161.00,164.00
             155.03,164.00 150.41,163.15 145.00,166.00
             145.00,166.00 145.00,147.00 145.00,147.00
             142.36,153.66 145.07,162.12 144.30,169.00
             143.68,174.54 141.17,173.09 143.00,181.00
             139.76,183.24 140.46,184.34 141.00,188.00
             141.00,188.00 139.00,186.00 139.00,186.00
             139.00,186.00 139.00,193.00 139.00,193.00
             139.00,193.00 137.00,191.00 137.00,191.00
             136.51,193.39 136.37,201.75 137.00,204.00
             139.36,212.25 154.86,225.32 161.99,230.18
             164.84,232.13 174.98,237.36 176.00,240.00
             176.00,240.00 180.00,239.00 180.00,239.00
             168.39,230.32 159.55,224.67 149.01,214.00
             145.37,210.31 139.39,204.20 138.86,198.74
             138.32,193.13 143.99,187.20 144.00,175.00
             144.00,175.00 145.00,177.00 145.00,177.00
             146.53,173.15 145.58,170.20 147.89,167.89
             149.97,165.81 153.28,166.02 156.00,166.00
             156.00,166.00 184.00,166.00 184.00,166.00
             186.19,166.00 189.84,165.79 191.69,167.02
             195.17,169.35 194.00,180.93 194.00,185.00
             194.00,198.59 194.99,234.92 193.00,246.00
             193.00,246.00 186.00,244.00 186.00,244.00
             188.57,248.02 194.22,250.81 199.00,249.30
             201.42,248.53 207.38,244.55 210.00,243.01
             219.71,237.30 226.11,233.01 235.00,226.00
             243.12,219.59 254.33,211.04 255.79,200.00
             256.51,194.52 253.39,188.23 251.67,183.00
             249.74,177.08 248.01,167.23 248.15,161.00
             248.15,161.00 248.15,141.00 248.15,141.00
             248.15,141.00 252.00,120.00 252.00,120.00
             252.00,120.00 251.00,123.00 251.00,123.00
             251.00,123.00 251.00,116.00 251.00,116.00
             251.00,116.00 251.79,119.00 251.79,119.00
             253.67,116.41 255.02,112.48 251.79,110.53
             248.82,108.99 237.67,108.29 234.00,107.68
             226.91,106.49 214.02,102.26 208.00,98.46
             202.09,94.72 199.18,90.09 192.00,93.00 Z
           M 190.00,94.00
           C 180.45,101.37 170.75,105.11 159.00,107.49
             159.00,107.49 138.00,111.00 138.00,111.00
             143.99,111.88 149.26,110.32 155.00,109.32
             163.55,107.83 170.96,106.45 179.00,102.82
             182.29,101.33 190.00,97.98 190.00,94.00 Z
           M 200.00,99.00
           C 213.81,106.72 222.90,111.07 239.00,112.95
             243.38,113.46 249.07,113.09 248.20,119.02
             247.53,123.56 246.75,128.79 245.00,133.00
             245.00,133.00 234.00,125.00 234.00,125.00
             234.00,125.00 236.00,120.00 236.00,120.00
             236.00,120.00 232.00,125.00 232.00,125.00
             230.44,122.55 230.81,122.64 232.00,120.00
             230.04,120.88 223.78,123.64 222.00,123.96
             222.00,123.96 216.00,123.96 216.00,123.96
             216.00,123.96 210.00,126.49 210.00,126.49
             207.34,127.46 204.56,127.58 202.94,130.23
             201.01,132.89 202.44,135.27 202.94,138.00
             204.93,145.73 209.21,151.19 217.00,153.89
             228.47,157.88 236.94,150.96 243.00,142.00
             243.00,142.00 243.00,160.92 243.00,160.92
             243.00,160.92 216.01,160.92 216.01,160.92
             212.13,161.37 203.62,162.58 200.32,160.92
             197.19,158.75 197.98,149.48 198.04,146.09
             198.04,146.09 198.04,110.00 198.04,110.00
             198.01,105.50 197.67,103.02 200.00,99.00 Z
           M 138.00,115.00
           C 138.00,115.00 139.00,119.00 139.00,119.00
             139.00,119.00 138.00,115.00 138.00,115.00 Z
           M 140.00,122.00
           C 140.00,122.00 141.00,128.00 141.00,128.00
             141.95,125.02 141.67,124.59 140.00,122.00 Z
           M 238.00,132.00
           C 238.00,132.00 230.00,133.00 230.00,133.00
             230.00,133.00 231.00,136.00 231.00,136.00
             231.00,136.00 241.00,134.00 241.00,134.00
             240.64,144.26 235.14,144.06 227.00,145.00
             224.53,140.00 225.92,138.94 228.00,134.00
             228.00,134.00 204.00,133.00 204.00,133.00
             206.41,131.22 207.18,131.52 209.41,130.25
             212.10,128.73 214.28,125.60 217.75,126.53
             220.53,127.28 222.89,130.72 226.00,130.91
             231.02,131.22 233.80,124.59 238.00,132.00 Z
           M 228.00,126.00
           C 228.00,126.00 228.00,130.00 228.00,130.00
             228.00,130.00 224.00,130.00 224.00,130.00
             224.00,130.00 224.00,126.00 224.00,126.00
             224.00,126.00 228.00,126.00 228.00,126.00 Z
           M 142.00,132.00
           C 142.00,132.00 143.00,140.00 143.00,140.00
             144.24,136.60 143.79,135.08 142.00,132.00 Z
           M 221.00,136.00
           C 221.00,136.00 221.00,137.00 221.00,137.00
             221.00,137.00 220.00,136.00 220.00,136.00
             220.00,136.00 221.00,136.00 221.00,136.00 Z
           M 247.00,140.00
           C 247.00,140.00 247.00,163.00 247.00,163.00
             247.00,163.00 248.00,175.00 248.00,175.00
             248.00,175.00 244.00,165.00 244.00,165.00
             244.00,165.00 247.00,140.00 247.00,140.00 Z
           M 249.00,176.00
           C 249.00,176.00 249.00,181.00 249.00,181.00
             249.00,181.00 249.00,176.00 249.00,176.00 Z
           M 223.00,187.00
           C 212.15,184.47 219.58,191.28 221.00,198.00
             215.13,194.71 211.51,185.48 213.00,179.00
             217.16,180.86 220.69,182.99 223.00,187.00 Z
           M 250.00,181.00
           C 250.00,181.00 250.00,182.00 250.00,182.00
             250.00,182.00 249.00,181.00 249.00,181.00
             249.00,181.00 250.00,181.00 250.00,181.00 Z
           M 219.00,204.00
           C 222.01,205.08 221.81,205.04 223.00,208.00
             230.84,203.81 227.94,196.44 225.00,190.00
             231.94,191.48 234.58,192.65 240.03,197.18
             241.33,198.26 244.08,200.36 242.83,202.38
             241.23,204.98 235.90,201.38 231.47,205.51
             228.54,208.25 227.78,213.62 225.55,214.83
             221.89,216.82 219.50,206.24 219.00,204.00 Z
           M 235.00,202.00
           C 235.35,201.01 235.84,200.36 235.89,199.11
             236.13,193.36 227.81,197.17 232.46,200.88
             233.42,201.64 234.11,201.66 235.00,202.00 Z
           M 139.00,204.00
           C 139.00,204.00 139.00,205.00 139.00,205.00
             139.00,205.00 138.00,204.00 138.00,204.00
             138.00,204.00 139.00,204.00 139.00,204.00 Z
           M 247.00,213.00
           C 247.00,213.00 247.00,214.00 247.00,214.00
             247.00,214.00 246.00,213.00 246.00,213.00
             246.00,213.00 247.00,213.00 247.00,213.00 Z
           M 245.00,215.00
           C 245.00,215.00 245.00,216.00 245.00,216.00
             245.00,216.00 244.00,215.00 244.00,215.00
             244.00,215.00 245.00,215.00 245.00,215.00 Z
           M 224.00,232.00
           C 224.00,232.00 224.00,233.00 224.00,233.00
             224.00,233.00 223.00,232.00 223.00,232.00
             223.00,232.00 224.00,232.00 224.00,232.00 Z
           M 196.00,244.00
           C 196.00,244.00 200.00,247.00 200.00,247.00
             200.00,247.00 194.00,248.00 194.00,248.00
             194.00,248.00 196.00,244.00 196.00,244.00 Z
           M 177.00,0.21
           C 152.72,3.89 136.75,6.89 114.00,17.31
             72.26,36.42 37.80,71.37 20.45,114.00
             -4.80,176.05 8.29,248.31 53.17,298.00
             74.77,321.91 100.86,338.39 131.00,349.22
             145.22,354.33 169.99,359.82 185.00,360.00
             185.00,360.00 205.00,360.00 205.00,360.00
             229.02,359.96 263.77,349.79 285.00,338.62
             320.59,319.88 347.27,292.95 365.25,257.00
             370.98,245.54 377.98,229.88 378.00,217.00
             378.00,217.00 378.00,142.00 378.00,142.00
             377.97,124.65 362.91,96.42 353.33,82.00
             325.77,40.47 278.29,10.25 229.00,2.58
             229.00,2.58 208.00,0.21 208.00,0.21
             208.00,0.21 177.00,0.21 177.00,0.21 Z
           M 198.00,24.00
           C 198.00,24.00 189.00,23.00 189.00,23.00
             195.46,28.25 197.36,26.93 200.00,35.00
             200.68,33.51 201.95,29.52 202.81,28.60
             205.33,25.90 211.23,26.94 212.89,30.15
             212.89,30.15 214.00,39.00 214.00,39.00
             217.84,33.18 216.55,30.63 218.57,29.01
             219.81,28.43 221.60,28.66 223.00,29.01
             234.13,29.61 231.03,35.64 231.00,44.00
             231.00,44.00 224.00,42.00 224.00,42.00
             224.00,42.00 226.00,33.00 226.00,33.00
             222.59,36.26 222.31,37.37 223.00,42.00
             223.00,42.00 213.58,40.64 213.58,40.64
             213.58,40.64 203.13,40.64 203.13,40.64
             203.13,40.64 199.00,36.00 199.00,36.00
             194.68,42.51 186.89,43.19 184.00,35.00
             184.00,35.00 185.00,34.00 185.00,34.00
             185.00,34.00 193.00,38.00 193.00,38.00
             193.00,38.00 194.00,34.00 194.00,34.00
             191.83,33.06 188.95,31.88 187.15,30.36
             177.18,21.96 195.87,11.77 198.00,24.00 Z
           M 176.00,29.00
           C 176.00,29.00 173.00,40.00 173.00,40.00
             184.39,42.00 173.96,54.30 166.15,51.22
             164.91,50.73 164.18,50.02 163.65,48.81
             163.65,48.81 162.18,35.02 162.18,35.02
             162.34,33.63 162.66,32.51 163.60,31.43
             166.26,28.36 172.26,29.00 176.00,29.00 Z
           M 135.00,33.00
           C 136.69,37.55 140.90,45.50 145.00,48.00
             144.79,45.06 142.66,39.04 143.40,37.43
             144.15,35.77 146.43,35.06 148.02,34.52
             157.04,31.41 159.16,37.29 161.00,45.00
             161.00,45.00 155.00,47.00 155.00,47.00
             153.44,42.46 153.73,41.38 150.00,38.00
             150.00,38.00 152.00,48.00 152.00,48.00
             152.00,48.00 129.00,57.00 129.00,57.00
             129.00,57.00 126.00,49.00 126.00,49.00
             124.71,53.74 126.28,54.68 128.00,59.00
             128.00,59.00 121.00,61.00 121.00,61.00
             121.00,61.00 117.18,51.10 117.18,51.10
             117.34,47.33 125.68,43.59 128.91,45.08
             131.79,46.41 132.33,49.39 137.00,52.00
             135.28,44.94 132.22,45.10 135.00,39.00
             130.27,37.32 131.17,35.18 135.00,33.00 Z
           M 248.00,37.00
           C 255.31,30.96 256.63,34.28 257.00,42.00
             252.72,44.60 253.52,46.46 254.00,51.00
             245.30,50.29 246.55,45.54 249.00,39.00
             249.00,39.00 248.00,38.23 248.00,38.23
             248.00,38.23 241.37,38.23 241.37,38.23
             237.16,40.35 243.43,43.44 245.00,44.00
             237.78,54.36 226.07,34.96 240.00,33.50
             241.28,33.11 242.76,33.28 243.96,33.50
             246.03,34.55 246.60,35.47 248.00,37.00 Z
           M 263.00,53.00
           C 263.00,53.00 267.00,45.00 267.00,45.00
             267.00,45.00 274.00,47.00 274.00,47.00
             274.00,47.00 270.00,59.00 270.00,59.00
             265.99,58.01 257.40,55.84 256.95,50.96
             256.95,50.96 259.00,41.00 259.00,41.00
             267.82,42.05 263.89,45.97 263.00,53.00 Z
           M 282.00,66.00
           C 286.18,63.97 286.80,63.04 289.00,59.00
             293.00,60.00 303.20,67.03 304.27,71.05
             304.83,73.14 303.62,75.97 303.00,78.00
             307.41,74.93 309.57,73.74 311.00,80.00
             300.70,79.63 289.06,92.29 287.00,80.00
             294.55,80.51 296.35,80.60 299.00,68.00
             293.44,67.94 291.69,67.63 289.00,73.00
             285.09,71.65 284.92,71.04 281.73,68.75
             279.03,66.82 272.53,63.24 271.74,59.99
             271.08,57.24 275.82,52.39 278.26,51.69
             281.16,50.85 287.36,53.32 285.67,59.00
             285.18,60.65 282.94,64.29 282.00,66.00 Z
           M 115.00,52.00
           C 114.38,58.51 112.60,58.85 118.00,63.00
             115.72,67.56 109.04,72.78 104.72,75.68
             100.27,78.66 97.84,77.13 98.00,72.00
             98.00,72.00 94.00,71.00 94.00,71.00
             94.16,69.60 94.18,68.39 94.74,67.02
             98.70,57.44 105.50,65.81 111.00,67.02
             111.00,67.02 106.26,59.85 106.26,59.85
             105.02,55.31 111.74,52.86 115.00,52.00 Z
           M 174.00,64.00
           C 174.00,64.00 172.00,71.00 172.00,71.00
             172.00,71.00 176.00,66.00 176.00,66.00
             176.00,66.00 180.00,68.00 180.00,68.00
             180.00,68.00 181.00,65.00 181.00,65.00
             184.53,66.26 185.63,66.39 187.00,70.00
             187.00,70.00 188.00,63.00 188.00,63.00
             188.00,63.00 191.00,63.00 191.00,63.00
             191.00,63.00 189.98,71.39 189.98,71.39
             189.98,71.39 184.00,72.81 184.00,72.81
             184.00,72.81 170.00,72.81 170.00,72.81
             170.00,72.81 169.00,63.00 169.00,63.00
             169.00,63.00 174.00,64.00 174.00,64.00 Z
           M 212.00,70.00
           C 212.00,70.00 213.00,66.00 213.00,66.00
             216.42,67.20 216.38,67.46 217.00,71.00
             217.00,71.00 219.00,66.00 219.00,66.00
             224.40,67.89 223.79,72.34 217.98,72.64
             217.98,72.64 199.00,72.00 199.00,72.00
             199.00,72.00 201.00,66.00 201.00,66.00
             208.33,66.72 210.17,64.77 212.00,70.00 Z
           M 91.00,80.00
           C 91.00,80.00 98.00,77.00 98.00,77.00
             97.73,84.76 95.99,85.06 89.00,87.00
             90.04,93.17 86.19,95.96 83.00,101.00
             83.00,101.00 80.00,101.00 80.00,101.00
             76.44,96.27 70.74,91.63 65.00,90.00
             66.30,85.60 66.86,84.19 71.00,82.00
             72.46,84.41 72.93,85.34 75.13,87.25
             75.13,87.25 78.00,89.44 78.00,89.44
             78.79,89.98 80.07,90.89 80.98,91.18
             88.64,93.60 84.38,80.52 84.48,79.00
             84.60,77.25 85.37,75.59 86.57,74.31
             89.43,71.29 93.71,71.94 94.09,74.31
             94.43,76.46 92.22,78.53 91.00,80.00 Z
           M 256.00,169.00
           C 256.00,169.00 264.00,169.00 264.00,169.00
             264.00,169.00 262.00,158.00 262.00,158.00
             262.00,158.00 266.00,158.00 266.00,158.00
             264.25,153.32 262.44,150.24 268.00,148.00
             264.74,140.26 266.90,141.56 266.95,136.83
             266.97,134.98 265.95,132.40 267.64,131.03
             269.16,129.86 273.14,130.76 275.00,131.03
             274.18,128.09 272.09,123.89 272.67,121.06
             273.37,117.68 276.26,116.65 278.27,118.62
             279.92,120.24 279.87,122.87 280.00,125.00
             288.47,123.76 287.41,127.56 285.00,134.00
             291.25,136.20 287.94,140.26 285.00,144.00
             293.11,145.40 288.35,151.21 285.00,155.00
             293.76,158.39 286.64,163.77 283.00,168.00
             288.69,169.00 288.90,172.78 284.77,176.36
             278.78,181.58 276.00,177.38 271.00,181.80
             273.81,181.77 279.46,180.57 281.84,181.80
             286.81,183.75 282.87,188.53 279.95,190.39
             274.84,193.64 271.37,192.55 266.00,191.00
             266.00,191.00 265.00,192.00 265.00,192.00
             265.00,192.00 265.00,194.00 265.00,194.00
             267.98,194.73 275.77,194.82 277.31,196.60
             279.18,198.76 277.57,201.75 275.72,203.30
             272.77,205.79 266.77,206.68 263.00,207.00
             263.00,207.00 268.55,210.12 268.55,210.12
             271.73,212.76 269.66,216.10 266.89,218.00
             262.51,221.01 256.09,220.76 251.00,222.00
             253.20,226.48 252.80,226.96 250.00,231.00
             256.36,231.00 263.86,230.07 260.00,239.00
             267.00,239.64 270.39,240.57 267.00,248.00
             275.94,248.53 276.62,253.45 270.00,256.00
             270.00,256.00 274.00,266.00 274.00,266.00
             264.88,268.36 265.48,261.93 261.00,256.00
             257.22,264.18 252.92,264.76 252.00,255.00
             242.28,259.40 244.90,246.98 247.00,242.00
             245.76,243.84 243.20,249.41 241.46,250.03
             240.31,250.44 239.30,250.11 238.20,249.35
             234.36,246.01 236.68,239.06 238.20,235.00
             233.70,239.30 234.91,242.38 231.78,244.23
             228.22,246.38 227.21,242.16 222.83,244.23
             215.99,247.38 202.30,259.37 195.00,258.51
             188.97,257.80 176.65,248.83 171.00,245.75
             165.46,242.73 164.31,245.77 161.34,244.56
             158.49,243.39 157.73,238.67 157.00,236.00
             157.00,236.00 155.00,251.00 155.00,251.00
             155.00,251.00 148.00,247.00 148.00,247.00
             147.94,253.29 147.65,259.19 140.00,254.00
             140.00,254.00 140.00,263.00 140.00,263.00
             135.33,262.23 134.39,261.57 133.00,257.00
             126.88,260.44 129.49,265.69 124.00,267.12
             119.72,268.23 117.25,261.74 123.00,258.00
             123.00,258.00 123.00,256.00 123.00,256.00
             116.30,253.51 116.46,248.14 127.00,248.00
             120.79,241.32 126.67,239.32 133.00,239.00
             129.76,230.02 136.45,231.00 143.00,231.00
             138.57,225.85 141.43,223.98 138.60,221.77
             137.02,220.53 134.85,220.94 133.00,220.84
             124.13,220.34 115.47,213.22 125.02,209.13
             125.02,209.13 129.00,208.00 129.00,208.00
             124.69,206.74 119.91,206.67 116.11,204.01
             113.15,201.93 110.91,197.57 115.23,195.60
             117.04,194.77 122.76,195.00 125.00,195.00
             125.00,195.00 125.00,192.00 125.00,192.00
             120.55,192.58 117.31,193.52 113.00,191.43
             107.72,188.87 105.51,183.66 109.29,181.87
             112.00,180.36 117.11,181.48 120.00,181.87
             120.00,181.87 119.00,178.00 119.00,178.00
             115.07,178.96 110.69,179.76 107.11,177.26
             102.71,174.20 101.40,169.16 108.00,168.00
             104.53,163.97 96.19,156.90 107.00,156.00
             103.54,151.88 97.51,146.72 106.00,144.00
             102.65,139.53 100.65,136.69 106.00,133.00
             103.90,129.07 103.39,128.49 104.00,124.00
             104.00,124.00 111.00,125.00 111.00,125.00
             111.75,115.78 117.41,116.60 118.55,121.06
             119.42,124.44 117.21,127.92 116.00,131.00
             124.54,129.49 126.05,130.81 122.00,139.00
             127.43,141.02 124.53,144.60 122.00,148.00
             129.52,149.30 125.96,154.80 123.00,159.00
             132.44,156.62 129.88,163.70 127.00,169.00
             131.12,168.13 132.49,167.71 134.00,172.00
             136.74,166.10 135.74,165.24 136.15,159.17
             137.08,145.59 134.25,132.02 130.58,119.00
             126.68,105.16 126.92,103.13 136.00,103.00
             136.00,103.00 143.00,103.00 143.00,103.00
             154.58,102.86 171.40,98.12 181.00,91.64
             181.00,91.64 194.28,80.17 194.28,80.17
             197.54,78.88 200.27,82.76 202.28,84.72
             207.94,90.22 212.76,93.50 220.00,96.57
             230.69,101.11 242.46,102.94 254.00,103.00
             257.05,103.02 262.03,102.67 263.31,106.23
             264.50,109.53 259.24,124.67 258.23,129.00
             256.83,135.01 254.85,150.09 255.04,156.00
             255.04,156.00 256.00,169.00 256.00,169.00 Z
           M 302.00,93.00
           C 302.00,93.00 305.00,86.00 305.00,86.00
             312.06,88.28 309.35,93.94 302.00,93.00 Z
           M 335.00,108.00
           C 335.00,108.00 334.00,101.00 334.00,101.00
             334.00,101.00 319.11,108.82 319.11,108.82
             316.58,108.74 314.52,105.24 316.64,102.81
             316.64,102.81 330.00,95.00 330.00,95.00
             330.00,95.00 325.00,92.00 325.00,92.00
             325.80,89.79 326.84,87.73 329.69,89.13
             332.59,90.55 339.20,101.57 338.27,104.78
             337.75,106.58 336.40,107.10 335.00,108.00 Z
           M 69.00,112.00
           C 69.00,112.00 73.00,108.00 73.00,108.00
             73.00,108.00 75.00,108.00 75.00,108.00
             75.74,110.95 76.20,112.99 74.11,115.61
             70.46,120.16 63.86,118.59 62.45,112.98
             61.72,110.12 62.67,106.49 65.22,104.79
             68.14,102.85 70.63,104.61 70.32,108.02
             70.19,109.44 69.52,110.71 69.00,112.00 Z
           M 334.00,111.00
           C 334.00,111.00 336.00,118.00 336.00,118.00
             332.44,119.48 331.09,119.63 329.00,123.00
             331.39,122.06 336.69,118.67 338.07,122.28
             338.65,123.35 338.52,124.60 338.07,125.59
             336.40,128.20 333.77,127.32 331.00,132.00
             331.00,132.00 338.00,129.00 338.00,129.00
             342.98,131.74 343.52,135.67 344.00,141.00
             335.90,139.71 339.85,135.86 331.00,141.00
             331.00,141.00 327.77,131.58 327.77,131.58
             327.77,131.58 324.26,124.00 324.26,124.00
             324.26,124.00 324.26,117.22 324.26,117.22
             324.26,117.22 334.00,111.00 334.00,111.00 Z
           M 70.00,120.00
           C 69.80,125.92 67.44,131.65 65.00,137.00
             65.00,137.00 53.00,131.36 53.00,131.36
             53.00,131.36 46.06,128.42 46.06,128.42
             46.06,128.42 46.06,123.00 46.06,123.00
             46.06,123.00 55.00,125.00 55.00,125.00
             58.28,115.15 61.47,119.23 70.00,120.00 Z
           M 59.00,125.00
           C 61.07,128.06 63.46,129.32 66.00,126.00
             66.00,126.00 59.00,125.00 59.00,125.00 Z
           M 50.00,136.00
           C 50.00,136.00 46.00,139.00 46.00,139.00
             51.37,141.03 57.24,142.92 63.00,142.00
             63.00,142.00 62.00,152.00 62.00,152.00
             54.28,148.41 53.08,147.20 44.00,147.00
             44.00,147.00 46.00,153.00 46.00,153.00
             44.34,153.12 43.06,153.55 41.61,152.22
             39.07,149.87 42.02,139.02 43.26,136.06
             44.04,134.20 45.39,132.06 47.75,133.17
             49.13,133.82 49.36,134.87 50.00,136.00 Z
           M 334.00,157.00
           C 333.42,154.99 332.53,152.04 332.32,150.00
             330.99,137.00 353.27,145.58 343.69,153.07
             342.39,154.09 335.87,156.38 334.00,157.00 Z
           M 111.00,156.00
           C 111.00,156.00 111.00,157.00 111.00,157.00
             111.00,157.00 112.00,156.00 112.00,156.00
             112.00,156.00 111.00,156.00 111.00,156.00 Z
           M 111.00,167.00
           C 111.00,167.00 111.00,169.00 111.00,169.00
             111.00,169.00 115.00,169.00 115.00,169.00
             115.00,169.00 115.00,167.00 115.00,167.00
             115.00,167.00 111.00,167.00 111.00,167.00 Z
           M 276.00,169.00
           C 276.00,169.00 280.00,168.00 280.00,168.00
             277.66,167.24 277.63,167.17 276.00,169.00 Z
           M 265.00,170.00
           C 265.00,170.00 270.00,173.00 270.00,173.00
             270.00,173.00 265.00,170.00 265.00,170.00 Z
           M 54.00,175.00
           C 55.54,177.25 56.87,179.51 59.18,181.07
             61.27,182.47 64.59,182.82 65.18,185.28
             65.78,187.80 63.06,190.47 62.14,193.00
             62.14,193.00 61.25,197.68 61.25,197.68
             60.89,198.53 60.56,198.96 59.67,199.12
             57.88,199.98 55.35,198.73 53.00,199.12
             50.38,198.96 47.53,200.85 45.69,199.12
             44.05,197.76 45.23,195.28 44.00,192.00
             43.15,189.73 40.59,187.04 42.08,184.51
             43.10,182.77 45.97,182.32 47.74,181.07
             47.74,181.07 54.00,175.00 54.00,175.00 Z
           M 344.00,175.00
           C 345.56,177.17 347.06,179.53 349.30,181.07
             351.09,182.31 353.92,182.80 354.92,184.51
             356.38,187.00 353.90,189.78 352.96,192.00
             351.84,194.67 352.05,197.13 350.98,198.57
             349.25,200.36 346.19,198.79 344.00,198.57
             341.49,198.77 338.50,200.24 336.00,201.00
             336.00,201.00 334.08,192.00 334.08,192.00
             334.08,192.00 332.13,184.51 332.13,184.51
             332.13,184.51 337.79,181.07 337.79,181.07
             337.79,181.07 342.00,175.00 342.00,175.00
             342.00,175.00 344.00,175.00 344.00,175.00 Z
           M 71.00,204.00
           C 73.40,209.19 78.52,218.50 70.00,220.00
             70.00,220.00 70.00,211.00 70.00,211.00
             70.00,211.00 63.00,213.00 63.00,213.00
             63.00,213.00 64.00,220.00 64.00,220.00
             58.42,216.82 60.46,214.61 53.00,215.00
             54.19,229.59 65.70,217.84 72.00,231.00
             74.27,229.82 78.42,227.65 80.94,227.52
             82.74,227.43 85.02,228.41 83.83,230.55
             82.94,232.16 75.15,234.99 73.00,236.00
             78.20,242.29 71.15,244.77 66.00,247.00
             66.00,247.00 81.00,247.00 81.00,247.00
             81.00,247.00 70.00,259.00 70.00,259.00
             70.00,259.00 68.00,259.00 68.00,259.00
             67.39,257.09 66.97,254.93 66.01,253.17
             64.62,250.60 61.55,248.53 62.66,245.18
             63.92,241.35 67.72,242.47 71.00,236.00
             65.86,238.44 64.81,238.50 61.00,243.00
             57.95,239.87 58.12,239.20 59.00,235.00
             57.65,234.50 56.72,234.41 55.60,233.28
             54.52,232.19 50.07,221.00 49.59,219.00
             48.96,216.57 47.64,213.76 49.59,211.58
             52.47,208.44 62.96,209.64 69.00,204.00
             69.00,204.00 71.00,204.00 71.00,204.00 Z
           M 345.00,220.00
           C 345.00,220.00 335.00,218.00 335.00,218.00
             335.00,218.00 335.00,228.00 335.00,228.00
             335.00,228.00 342.00,222.00 342.00,222.00
             341.97,228.78 341.55,233.93 333.00,232.00
             334.18,236.19 338.53,243.01 331.00,242.00
             331.00,242.00 332.00,250.00 332.00,250.00
             332.00,250.00 323.00,248.00 323.00,248.00
             327.45,256.85 327.99,263.69 316.00,264.00
             318.68,271.44 315.35,270.72 315.40,275.00
             315.43,277.64 317.60,279.16 319.00,284.00
             311.14,282.73 306.30,274.51 300.00,270.00
             301.35,273.97 302.77,276.78 307.00,278.00
             307.23,279.74 307.79,281.58 305.71,282.60
             302.24,284.31 298.58,278.25 297.00,276.00
             297.00,276.00 298.00,290.00 298.00,290.00
             298.00,290.00 289.00,283.00 289.00,283.00
             289.00,283.00 293.00,294.00 293.00,294.00
             286.05,294.86 287.33,290.54 280.00,287.00
             281.02,282.58 281.54,282.36 286.00,282.00
             287.30,276.33 287.94,278.61 291.33,275.44
             294.56,272.43 292.88,271.89 298.00,271.00
             298.98,266.54 299.44,265.78 304.00,265.00
             304.61,259.80 305.41,257.82 311.00,258.00
             311.06,252.71 313.46,244.61 319.18,242.84
             320.92,242.10 324.12,242.76 326.00,242.84
             326.00,242.84 321.00,239.00 321.00,239.00
             321.00,239.00 321.00,237.00 321.00,237.00
             321.00,237.00 330.00,237.00 330.00,237.00
             330.00,237.00 324.00,232.00 324.00,232.00
             324.61,228.47 324.67,228.34 328.00,227.00
             325.37,217.40 331.63,216.93 332.00,205.00
             336.97,206.73 335.15,208.33 338.31,211.62
             341.92,215.39 343.99,213.97 345.00,220.00 Z
           M 144.00,232.00
           C 144.00,232.00 148.00,235.00 148.00,235.00
             148.00,235.00 144.00,232.00 144.00,232.00 Z
           M 88.00,281.00
           C 84.65,279.11 84.63,278.76 84.00,275.00
             82.65,274.69 81.66,274.67 80.43,273.83
             80.43,273.83 72.18,263.87 72.18,263.87
             71.70,262.98 71.40,262.01 71.37,261.00
             71.21,255.12 79.21,251.44 84.70,254.41
             87.80,256.09 88.35,258.98 90.54,261.41
             92.11,263.16 94.57,264.46 95.34,267.04
             96.88,272.20 91.19,272.79 88.00,281.00 Z
           M 86.00,267.00
           C 86.00,267.00 84.00,257.00 84.00,257.00
             75.94,257.65 75.00,262.66 78.32,265.33
             80.03,266.70 83.80,266.76 86.00,267.00 Z
           M 107.00,267.00
           C 107.78,273.03 104.33,272.95 105.33,275.96
             106.24,278.70 110.58,279.59 112.22,281.64
             112.98,282.60 113.35,283.68 113.04,284.90
             111.87,289.48 105.06,286.54 102.00,286.00
             102.00,286.00 106.00,293.84 106.00,293.84
             104.74,293.96 103.27,294.01 102.04,293.84
             100.28,293.22 99.10,292.47 98.18,290.85
             95.32,285.85 100.33,281.68 103.00,278.00
             103.00,278.00 102.00,277.00 102.00,277.00
             96.69,279.90 95.69,280.94 96.00,287.00
             89.94,285.98 89.09,283.04 92.56,278.00
             96.27,272.60 100.95,269.30 107.00,267.00 Z
           M 276.00,278.00
           C 276.00,278.00 277.00,282.00 277.00,282.00
             275.53,282.34 272.50,282.80 271.42,283.75
             269.30,285.61 270.47,288.49 273.11,288.95
             274.32,289.16 277.62,288.28 279.00,288.00
             276.73,295.24 273.65,292.04 277.00,300.00
             281.04,297.80 281.97,297.18 284.00,293.00
             292.03,298.39 278.73,304.56 276.10,304.11
             273.68,303.69 272.29,300.90 271.15,299.00
             268.79,295.05 263.02,287.29 262.00,284.00
             267.71,280.80 269.22,278.49 276.00,278.00 Z
           M 146.00,298.00
           C 146.00,298.00 140.00,292.00 140.00,292.00
             137.59,300.70 140.60,297.49 143.00,303.79
             141.60,303.87 137.61,303.19 136.36,303.79
             134.35,304.39 132.99,307.85 136.36,309.82
             138.25,310.80 140.80,310.28 143.00,309.82
             139.82,318.57 134.36,312.85 128.00,311.00
             128.00,311.00 135.00,287.00 135.00,287.00
             139.51,287.92 154.74,291.41 146.00,298.00 Z
           M 171.00,294.00
           C 171.97,304.89 164.61,308.44 167.00,322.00
             160.16,323.52 161.18,318.98 162.21,314.00
             162.96,310.38 165.67,297.87 167.84,295.59
             168.98,294.39 169.62,294.47 171.00,294.00 Z
           M 197.00,314.00
           C 198.26,312.61 199.16,311.27 201.07,310.65
             208.06,308.43 203.58,317.51 209.00,323.00
             209.00,323.00 209.00,325.00 209.00,325.00
             209.00,325.00 204.00,327.00 204.00,327.00
             204.00,327.00 203.00,315.00 203.00,315.00
             197.37,318.00 197.86,321.42 196.00,327.00
             196.00,327.00 194.00,327.00 194.00,327.00
             194.00,327.00 192.00,314.00 192.00,314.00
             189.56,318.55 189.05,320.19 184.00,322.00
             184.00,322.00 184.00,324.00 184.00,324.00
             187.25,324.97 191.72,326.55 190.34,330.97
             188.19,337.90 172.78,338.10 174.74,329.00
             175.28,326.47 176.89,324.91 177.24,321.00
             177.50,317.99 176.40,315.08 178.60,312.23
             182.39,307.29 187.41,310.78 190.69,308.79
             193.34,307.17 193.44,300.10 194.00,297.00
             194.00,297.00 197.00,298.72 197.00,298.72
             197.00,298.72 197.00,314.00 197.00,314.00 Z
           M 178.00,301.00
           C 178.00,301.00 177.00,306.00 177.00,306.00
             177.00,306.00 173.00,302.00 173.00,302.00
             173.00,302.00 178.00,301.00 178.00,301.00 Z
           M 213.00,301.00
           C 214.73,306.81 213.46,306.54 218.00,311.00
             213.38,315.22 213.21,318.81 219.00,321.97
             216.71,326.04 212.96,327.14 211.28,321.97
             209.13,315.29 208.22,306.62 213.00,301.00 Z
           M 152.00,306.00
           C 162.92,301.73 161.50,310.78 157.00,317.00
             157.00,317.00 159.00,320.00 159.00,320.00
             149.73,321.95 154.94,312.90 156.00,308.00
             151.43,311.00 148.74,316.72 143.00,316.00
             145.28,310.26 146.56,308.33 146.00,302.00
             149.95,302.31 150.49,302.23 152.00,306.00 Z
           M 252.00,315.00
           C 252.00,315.00 249.00,319.00 249.00,319.00
             244.83,315.48 244.36,313.15 243.00,308.00
             243.00,308.00 241.00,308.00 241.00,308.00
             241.00,308.00 240.00,321.00 240.00,321.00
             232.87,318.57 237.57,315.25 231.00,309.00
             230.04,314.73 228.06,314.92 223.00,317.00
             227.04,319.76 227.23,319.69 232.00,319.00
             231.05,320.67 230.44,322.07 228.78,323.25
             221.05,328.71 215.49,315.64 221.57,309.57
             224.19,306.95 227.64,307.27 231.00,306.78
             235.29,305.67 234.77,305.46 239.00,306.78
             239.82,304.95 240.33,303.27 243.00,303.27
             247.52,303.27 247.46,308.94 249.16,311.82
             250.07,313.37 250.78,313.83 252.00,315.00 Z
           M 175.00,308.00
           C 175.00,308.00 175.00,324.00 175.00,324.00
             168.56,324.82 169.00,320.94 170.12,316.00
             170.50,314.33 171.01,311.80 171.98,310.41
             172.96,309.03 173.70,308.83 175.00,308.00 Z
           M 194.00,90.74
           C 194.00,90.74 179.00,99.68 179.00,99.68
             170.82,103.62 161.91,105.61 153.00,107.08
             149.13,107.72 139.31,107.64 137.60,111.30
             136.07,114.55 139.51,126.08 140.41,130.00
             140.41,130.00 141.30,138.00 141.30,138.00
             141.30,138.00 142.91,146.00 142.91,146.00
             142.91,146.00 142.91,162.00 142.91,162.00
             142.82,177.19 135.12,189.37 134.34,197.00
             133.67,203.54 137.83,209.14 141.67,214.00
             149.50,223.93 167.98,236.14 179.00,243.05
             183.59,245.93 192.51,252.74 198.00,251.26
             200.53,250.58 211.09,243.97 214.00,242.19
             222.99,236.68 240.47,224.36 247.53,216.99
             251.65,212.67 255.94,207.07 256.79,201.00
             257.77,194.05 254.26,188.45 252.43,182.00
             249.98,173.35 248.99,163.95 248.32,155.00
             247.85,148.63 251.32,130.77 252.88,124.00
             253.59,120.90 255.89,113.21 253.97,110.56
             252.04,107.88 242.50,107.65 239.00,107.08
             228.02,105.28 221.11,103.94 211.00,98.74
             205.42,95.87 200.35,89.98 194.00,90.74 Z
           M 198.00,96.00
           C 211.55,102.61 214.47,106.77 231.00,109.91
             231.00,109.91 243.00,111.92 243.00,111.92
             244.95,112.09 247.63,111.88 248.89,113.60
             250.76,115.87 249.32,121.36 248.89,124.00
             247.18,132.19 245.10,141.68 245.00,150.00
             244.97,153.29 245.61,160.00 243.26,162.40
             241.36,164.34 237.53,163.99 235.00,164.00
             235.00,164.00 207.00,164.00 207.00,164.00
             197.79,163.98 197.02,163.21 197.00,154.00
             197.00,154.00 197.00,117.00 197.00,117.00
             197.00,110.62 196.30,101.97 198.00,96.00 Z
           M 165.00,125.00
           C 165.00,125.00 174.00,126.00 174.00,126.00
             171.51,133.80 164.72,130.32 165.00,125.00 Z
           M 164.00,129.00
           C 164.00,140.55 166.40,142.95 160.00,145.00
             160.11,139.80 160.78,133.20 164.00,129.00 Z
           M 177.00,129.00
           C 177.00,129.00 182.00,147.00 182.00,147.00
             173.64,148.44 175.01,141.70 175.72,136.00
             176.06,133.24 175.95,131.64 177.00,129.00 Z
           M 171.00,134.00
           C 171.00,134.00 171.00,135.00 171.00,135.00
             171.00,135.00 170.00,134.00 170.00,134.00
             170.00,134.00 171.00,134.00 171.00,134.00 Z
           M 171.00,148.00
           C 171.00,148.00 171.00,149.00 171.00,149.00
             171.00,149.00 170.00,148.00 170.00,148.00
             170.00,148.00 171.00,148.00 171.00,148.00 Z
           M 194.00,245.00
           C 186.93,243.67 180.77,239.25 175.00,235.14
             166.55,229.12 158.49,223.28 151.01,216.03
             147.42,212.55 141.87,207.63 140.01,203.00
             137.21,196.03 143.27,185.56 144.99,178.00
             145.50,175.77 146.69,169.10 147.98,167.60
             149.70,165.61 153.60,166.00 156.00,166.00
             156.00,166.00 185.00,166.00 185.00,166.00
             186.99,166.00 190.81,165.77 192.40,167.02
             194.93,169.03 194.00,182.42 194.00,186.00
             194.00,186.00 194.00,245.00 194.00,245.00 Z
           M 198.80,244.00
           C 198.80,244.00 198.80,222.91 198.80,222.91
             198.80,222.91 198.10,217.00 198.10,217.00
             198.10,217.00 198.91,205.99 198.91,205.99
             198.91,205.99 198.18,195.73 198.18,195.73
             198.18,195.73 198.92,185.99 198.92,185.99
             198.92,185.99 198.92,167.00 198.92,167.00
             198.92,167.00 235.00,167.00 235.00,167.00
             237.50,167.00 241.30,166.64 243.15,168.60
             244.92,170.47 245.10,175.36 245.75,178.00
             247.78,186.28 254.01,195.58 250.25,204.00
             247.51,210.12 242.93,213.90 238.00,218.13
             229.81,225.15 208.67,239.69 198.80,244.00 Z
           M 133.00,181.00
           C 131.85,193.71 126.37,190.33 129.00,205.00
             130.46,201.25 129.43,199.53 130.27,196.00
             131.66,190.22 135.54,187.49 133.00,181.00 Z
           M 154.00,202.93
           C 155.29,206.81 156.52,207.33 160.00,209.22
             162.81,210.74 168.69,214.14 171.82,213.34
             175.16,212.47 182.88,202.09 184.86,199.00
             185.96,197.28 187.03,195.49 186.39,193.37
             185.17,189.35 179.55,187.29 176.00,186.29
             172.78,185.40 170.36,184.72 167.00,185.56
             163.52,186.42 159.99,189.03 157.00,191.00
             154.54,192.62 140.84,201.11 151.06,202.93
             151.06,202.93 154.00,202.93 154.00,202.93 Z
           M 181.00,199.00
           C 181.00,199.00 181.00,200.00 181.00,200.00
             181.00,200.00 180.00,199.00 180.00,199.00
             180.00,199.00 181.00,199.00 181.00,199.00 Z
           M 156.00,200.00
           C 156.00,200.00 156.00,201.00 156.00,201.00
             156.00,201.00 155.00,200.00 155.00,200.00
             155.00,200.00 156.00,200.00 156.00,200.00 Z
           M 180.00,200.00
           C 180.00,200.00 180.00,201.00 180.00,201.00
             180.00,201.00 179.00,200.00 179.00,200.00
             179.00,200.00 180.00,200.00 180.00,200.00 Z
           M 158.00,201.00
           C 158.00,201.00 158.00,202.00 158.00,202.00
             158.00,202.00 157.00,201.00 157.00,201.00
             157.00,201.00 158.00,201.00 158.00,201.00 Z
           M 179.00,201.00
           C 179.00,201.00 179.00,202.00 179.00,202.00
             179.00,202.00 178.00,201.00 178.00,201.00
             178.00,201.00 179.00,201.00 179.00,201.00 Z
           M 160.00,202.00
           C 160.00,202.00 160.00,203.00 160.00,203.00
             160.00,203.00 159.00,202.00 159.00,202.00
             159.00,202.00 160.00,202.00 160.00,202.00 Z
           M 175.00,203.00
           C 175.00,203.00 175.00,205.00 175.00,205.00
             171.03,206.56 170.39,206.70 167.00,204.00
             167.00,204.00 175.00,203.00 175.00,203.00 Z
           M 163.00,203.00
           C 163.00,203.00 163.00,204.00 163.00,204.00
             163.00,204.00 162.00,203.00 162.00,203.00
             162.00,203.00 163.00,203.00 163.00,203.00 Z
           M 130.00,207.00
           C 130.00,207.00 138.00,219.00 138.00,219.00
             139.52,213.26 134.84,209.08 130.00,207.00 Z
           M 142.00,222.00
           C 142.00,222.00 155.00,233.00 155.00,233.00
             153.21,226.95 148.17,222.98 142.00,222.00 Z
           M 156.00,233.00
           C 156.00,233.00 166.00,242.00 166.00,242.00
             166.94,236.69 160.18,234.22 156.00,233.00 Z" />
</svg>
